<svg width="18" height="19" viewBox="0 0 18 19" fill="none" xmlns="http://www.w3.org/2000/svg">
<g clip-path="url(#clip0_1_498)">
<path fill-rule="evenodd" clip-rule="evenodd" d="M10.71 2.10659C11.0248 2.10667 11.3316 2.2058 11.587 2.38995C11.8423 2.57409 12.0333 2.8339 12.1327 3.13259L12.54 4.35659H15C15.1989 4.35659 15.3897 4.43561 15.5303 4.57626C15.671 4.71691 15.75 4.90768 15.75 5.10659C15.75 5.3055 15.671 5.49627 15.5303 5.63692C15.3897 5.77757 15.1989 5.85659 15 5.85659L14.9977 5.90984L14.3475 15.0171C14.3069 15.5845 14.0529 16.1156 13.6365 16.5033C13.2202 16.8909 12.6724 17.1065 12.1035 17.1066H5.8965C5.32759 17.1065 4.77983 16.8909 4.36347 16.5033C3.94712 16.1156 3.69308 15.5845 3.6525 15.0171L3.00225 5.90909C3.00089 5.89162 3.00014 5.87411 3 5.85659C2.80109 5.85659 2.61032 5.77757 2.46967 5.63692C2.32902 5.49627 2.25 5.3055 2.25 5.10659C2.25 4.90768 2.32902 4.71691 2.46967 4.57626C2.61032 4.43561 2.80109 4.35659 3 4.35659H5.46L5.86725 3.13259C5.96677 2.83378 6.15783 2.57388 6.41332 2.38973C6.66882 2.20557 6.9758 2.10651 7.29075 2.10659H10.7093H10.71ZM6.75 8.10659C6.5663 8.10661 6.389 8.17406 6.25172 8.29613C6.11444 8.4182 6.02674 8.5864 6.00525 8.76884L6 8.85659V13.3566C6.00021 13.5477 6.07341 13.7316 6.20464 13.8706C6.33586 14.0096 6.51521 14.0933 6.70605 14.1045C6.89688 14.1157 7.08478 14.0536 7.23137 13.9309C7.37796 13.8082 7.47217 13.6342 7.49475 13.4443L7.5 13.3566V8.85659C7.5 8.65768 7.42098 8.46691 7.28033 8.32626C7.13968 8.18561 6.94891 8.10659 6.75 8.10659ZM11.25 8.10659C11.0511 8.10659 10.8603 8.18561 10.7197 8.32626C10.579 8.46691 10.5 8.65768 10.5 8.85659V13.3566C10.5 13.5555 10.579 13.7463 10.7197 13.8869C10.8603 14.0276 11.0511 14.1066 11.25 14.1066C11.4489 14.1066 11.6397 14.0276 11.7803 13.8869C11.921 13.7463 12 13.5555 12 13.3566V8.85659C12 8.65768 11.921 8.46691 11.7803 8.32626C11.6397 8.18561 11.4489 8.10659 11.25 8.10659ZM10.71 3.60659H7.29L7.04025 4.35659H10.9598L10.7093 3.60659H10.71Z" fill="#1F2027"/>
</g>
<defs>
<clipPath id="clip0_1_498">
<rect width="18" height="18" fill="white" transform="translate(0 0.606567)"/>
</clipPath>
</defs>
</svg>
