<svg width="18" height="18" viewBox="0 0 18 18" fill="none" xmlns="http://www.w3.org/2000/svg">
<path d="M3.75 15.75C3.3375 15.75 2.98425 15.6033 2.69025 15.3097C2.39675 15.0157 2.25 14.6625 2.25 14.25V4.875C2.25 4.6875 2.28125 4.51875 2.34375 4.36875C2.40625 4.21875 2.4875 4.075 2.5875 3.9375L3.6375 2.6625C3.7375 2.525 3.8625 2.42175 4.0125 2.35275C4.1625 2.28425 4.325 2.25 4.5 2.25H13.5C13.675 2.25 13.8375 2.28425 13.9875 2.35275C14.1375 2.42175 14.2625 2.525 14.3625 2.6625L15.4125 3.9375C15.5125 4.075 15.5938 4.21875 15.6562 4.36875C15.7188 4.51875 15.75 4.6875 15.75 4.875V14.25C15.75 14.6625 15.6033 15.0157 15.3097 15.3097C15.0157 15.6033 14.6625 15.75 14.25 15.75H3.75ZM4.05 4.5H13.95L13.3125 3.75H4.6875L4.05 4.5ZM9 13.5L12 10.5L10.95 9.45L9.75 10.65V7.5H8.25V10.65L7.05 9.45L6 10.5L9 13.5Z" fill="#1F2027"/>
</svg>
