<svg width="18" height="19" viewBox="0 0 18 19" fill="none" xmlns="http://www.w3.org/2000/svg">
<path d="M10.365 17.3087H7.63504C7.46398 17.3088 7.29806 17.2503 7.16479 17.1431C7.03151 17.0359 6.93889 16.8863 6.90229 16.7192L6.59703 15.3062C6.18983 15.1278 5.80371 14.9047 5.44579 14.641L4.06804 15.0797C3.90496 15.1317 3.729 15.1264 3.56938 15.0646C3.40975 15.0028 3.27607 14.8882 3.19054 14.74L1.82254 12.3767C1.73789 12.2283 1.70612 12.0556 1.73242 11.8868C1.75871 11.718 1.84152 11.5631 1.96729 11.4475L3.03604 10.4725C2.98743 10.0308 2.98743 9.58515 3.03604 9.14348L1.96729 8.17073C1.84134 8.05506 1.75842 7.90004 1.73212 7.73107C1.70582 7.5621 1.7377 7.38921 1.82254 7.24073L3.18754 4.87598C3.27307 4.72772 3.40675 4.61318 3.56638 4.55137C3.726 4.48957 3.90196 4.48423 4.06504 4.53623L5.44279 4.97498C5.62579 4.83998 5.81629 4.71398 6.01279 4.59998C6.20254 4.49348 6.39753 4.39673 6.59703 4.31048L6.90304 2.89898C6.93946 2.73188 7.03191 2.58225 7.16505 2.4749C7.29818 2.36754 7.46401 2.30891 7.63504 2.30873H10.365C10.5361 2.30891 10.7019 2.36754 10.835 2.4749C10.9682 2.58225 11.0606 2.73188 11.097 2.89898L11.406 4.31123C11.8127 4.49068 12.1987 4.71374 12.5573 4.97648L13.9358 4.53773C14.0988 4.48592 14.2746 4.49136 14.434 4.55315C14.5935 4.61495 14.727 4.72938 14.8125 4.87748L16.1775 7.24223C16.3515 7.54748 16.2915 7.93373 16.0328 8.17148L14.964 9.14648C15.0126 9.58815 15.0126 10.0338 14.964 10.4755L16.0328 11.4505C16.2915 11.689 16.3515 12.0745 16.1775 12.3797L14.8125 14.7445C14.727 14.8927 14.5933 15.0073 14.4337 15.0691C14.2741 15.1309 14.0981 15.1362 13.935 15.0842L12.5573 14.6455C12.1996 14.909 11.8138 15.1319 11.4068 15.31L11.097 16.7192C11.0605 16.8862 10.9679 17.0357 10.8348 17.1429C10.7017 17.2501 10.536 17.3086 10.365 17.3087ZM8.99704 6.80873C8.20139 6.80873 7.43832 7.1248 6.87571 7.68741C6.31311 8.25002 5.99704 9.01308 5.99704 9.80873C5.99704 10.6044 6.31311 11.3674 6.87571 11.9301C7.43832 12.4927 8.20139 12.8087 8.99704 12.8087C9.79269 12.8087 10.5557 12.4927 11.1184 11.9301C11.681 11.3674 11.997 10.6044 11.997 9.80873C11.997 9.01308 11.681 8.25002 11.1184 7.68741C10.5557 7.1248 9.79269 6.80873 8.99704 6.80873Z" fill="#1F2027"/>
</svg>
