<svg width="12" height="2" viewBox="0 0 12 2" fill="none" xmlns="http://www.w3.org/2000/svg">
<path d="M5.99997 1.85714C6.47335 1.85714 6.85711 1.47339 6.85711 1C6.85711 0.526613 6.47335 0.142857 5.99997 0.142857C5.52658 0.142857 5.14282 0.526613 5.14282 1C5.14282 1.47339 5.52658 1.85714 5.99997 1.85714Z" fill="black"/>
<path d="M1.71426 1.85714C2.18765 1.85714 2.5714 1.47339 2.5714 1C2.5714 0.526613 2.18765 0.142858 1.71426 0.142858C1.24087 0.142858 0.857117 0.526613 0.857117 1C0.857117 1.47339 1.24087 1.85714 1.71426 1.85714Z" fill="black"/>
<path d="M10.2857 1.85714C10.7591 1.85714 11.1428 1.47339 11.1428 1C11.1428 0.526613 10.7591 0.142857 10.2857 0.142857C9.81228 0.142857 9.42853 0.526613 9.42853 1C9.42853 1.47339 9.81228 1.85714 10.2857 1.85714Z" fill="black"/>
</svg>
