<svg width="18" height="19" viewBox="0 0 18 19" fill="none" xmlns="http://www.w3.org/2000/svg">
<g clip-path="url(#clip0_1_488)">
<path d="M4.50006 1.70216C4.10224 1.70216 3.72071 1.8602 3.4394 2.1415C3.1581 2.42281 3.00006 2.80434 3.00006 3.20216V15.2022C3.00006 15.6 3.1581 15.9815 3.4394 16.2628C3.72071 16.5441 4.10224 16.7022 4.50006 16.7022H12.7501C13.3468 16.7022 13.9191 16.4651 14.3411 16.0432C14.763 15.6212 15.0001 15.0489 15.0001 14.4522V3.95216C15.0001 3.35543 14.763 2.78313 14.3411 2.36117C13.9191 1.93922 13.3468 1.70216 12.7501 1.70216H12.0001V9.04691C12 9.12112 11.978 9.19364 11.9368 9.25532C11.8955 9.317 11.8369 9.36505 11.7683 9.39339C11.6997 9.42174 11.6243 9.4291 11.5515 9.41456C11.4788 9.40001 11.412 9.3642 11.3596 9.31166L10.0156 7.96766C9.98073 7.93274 9.93934 7.90503 9.89379 7.88613C9.84823 7.86722 9.79939 7.85749 9.75006 7.85749C9.70074 7.85749 9.6519 7.86722 9.60634 7.88613C9.56078 7.90503 9.5194 7.93274 9.48456 7.96766L8.14056 9.31166C8.08816 9.3642 8.02135 9.40001 7.94859 9.41456C7.87583 9.4291 7.80038 9.42174 7.73181 9.39339C7.66324 9.36505 7.60461 9.317 7.56336 9.25532C7.52211 9.19364 7.50008 9.12112 7.50006 9.04691V1.70216H4.50006Z" fill="#1F2027"/>
</g>
<defs>
<clipPath id="clip0_1_488">
<rect width="18" height="18" fill="white" transform="translate(0 0.202179)"/>
</clipPath>
</defs>
</svg>
