<svg width="18" height="18" viewBox="0 0 18 18" fill="none" xmlns="http://www.w3.org/2000/svg">
<path d="M5.0625 2.25H4.3125C3.76549 2.25 3.24089 2.4673 2.85409 2.85409C2.4673 3.24089 2.25 3.76549 2.25 4.3125V13.6875C2.25 14.2345 2.4673 14.7591 2.85409 15.1459C3.24089 15.5327 3.76549 15.75 4.3125 15.75H4.5V11.25C4.5 10.8024 4.67779 10.3732 4.99426 10.0568C5.31072 9.74029 5.73995 9.5625 6.1875 9.5625H11.8125C12.2601 9.5625 12.6893 9.74029 13.0057 10.0568C13.3222 10.3732 13.5 10.8024 13.5 11.25V15.75H13.6875C14.2345 15.75 14.7591 15.5327 15.1459 15.1459C15.5327 14.7591 15.75 14.2345 15.75 13.6875V6.2145C15.7501 5.89428 15.6871 5.57719 15.5646 5.28134C15.442 4.98548 15.2624 4.71667 15.036 4.49025L13.5098 2.964C13.0591 2.51325 12.4498 2.25694 11.8125 2.25V5.625C11.8125 6.07255 11.6347 6.50177 11.3182 6.81824C11.0018 7.13471 10.5726 7.3125 10.125 7.3125H6.75C6.30245 7.3125 5.87322 7.13471 5.55676 6.81824C5.24029 6.50177 5.0625 6.07255 5.0625 5.625V2.25ZM10.6875 2.25V5.625C10.6875 5.77418 10.6282 5.91726 10.5227 6.02275C10.4173 6.12824 10.2742 6.1875 10.125 6.1875H6.75C6.60082 6.1875 6.45774 6.12824 6.35225 6.02275C6.24676 5.91726 6.1875 5.77418 6.1875 5.625V2.25H10.6875ZM12.375 15.75V11.25C12.375 11.1008 12.3157 10.9577 12.2102 10.8523C12.1048 10.7468 11.9617 10.6875 11.8125 10.6875H6.1875C6.03832 10.6875 5.89524 10.7468 5.78975 10.8523C5.68426 10.9577 5.625 11.1008 5.625 11.25V15.75H12.375Z" fill="#1D1E24"/>
</svg>
