<svg width="18" height="18" viewBox="0 0 18 18" fill="none" xmlns="http://www.w3.org/2000/svg">
<path fill-rule="evenodd" clip-rule="evenodd" d="M13.7393 10.8247C14.6745 9.619 15.1153 8.10226 14.9719 6.58308C14.8285 5.0639 14.1118 3.65641 12.9675 2.64693C11.8232 1.63745 10.3373 1.10183 8.81208 1.14902C7.28688 1.19622 5.83694 1.82269 4.75725 2.90099C3.67662 3.98003 3.0481 5.43053 2.99977 6.95688C2.95145 8.48324 3.48696 9.97059 4.49717 11.1158C5.50738 12.2611 6.91627 12.978 8.43673 13.1206C9.95719 13.2631 11.4748 12.8205 12.6802 11.883L12.7125 11.9167L15.894 15.099C15.9637 15.1687 16.0464 15.2239 16.1375 15.2617C16.2285 15.2994 16.3261 15.3188 16.4246 15.3188C16.5232 15.3188 16.6208 15.2994 16.7118 15.2617C16.8028 15.2239 16.8856 15.1687 16.9552 15.099C17.0249 15.0293 17.0802 14.9466 17.1179 14.8555C17.1556 14.7645 17.175 14.6669 17.175 14.5684C17.175 14.4698 17.1556 14.3722 17.1179 14.2812C17.0802 14.1901 17.0249 14.1074 16.9552 14.0377L13.773 10.8562C13.762 10.8454 13.7508 10.8349 13.7393 10.8247ZM12.1822 3.96224C12.6057 4.37885 12.9425 4.87517 13.1731 5.42259C13.4038 5.97 13.5238 6.55767 13.5263 7.1517C13.5287 7.74573 13.4135 8.33436 13.1872 8.88363C12.961 9.43291 12.6283 9.93196 12.2083 10.352C11.7882 10.772 11.2892 11.1048 10.7399 11.331C10.1906 11.5572 9.60199 11.6724 9.00796 11.67C8.41394 11.6676 7.82627 11.5476 7.27885 11.3169C6.73144 11.0862 6.23511 10.7494 5.8185 10.326C4.98594 9.47975 4.52149 8.33882 4.52632 7.1517C4.53116 5.96459 5.00488 4.82747 5.84431 3.98804C6.68373 3.14862 7.82085 2.6749 9.00796 2.67006C10.1951 2.66523 11.336 3.12968 12.1822 3.96224Z" fill="#1D1E24"/>
</svg>
