<svg width="18" height="19" viewBox="0 0 18 19" fill="none" xmlns="http://www.w3.org/2000/svg">
<path d="M8.99994 16.1544L7.91244 15.1794C6.64994 14.0419 5.60619 13.0607 4.78119 12.2357C3.95619 11.4107 3.29994 10.6699 2.81244 10.0134C2.32494 9.35744 1.98444 8.75444 1.79094 8.20444C1.59694 7.65444 1.49994 7.09194 1.49994 6.51694C1.49994 5.34194 1.89369 4.36069 2.68119 3.57319C3.46869 2.78569 4.44994 2.39194 5.62494 2.39194C6.27494 2.39194 6.89369 2.52944 7.48119 2.80444C8.06869 3.07944 8.57494 3.46694 8.99994 3.96694C9.42494 3.46694 9.93119 3.07944 10.5187 2.80444C11.1062 2.52944 11.7249 2.39194 12.3749 2.39194C13.5499 2.39194 14.5312 2.78569 15.3187 3.57319C16.1062 4.36069 16.4999 5.34194 16.4999 6.51694C16.4999 7.09194 16.4032 7.65444 16.2097 8.20444C16.0157 8.75444 15.6749 9.35744 15.1874 10.0134C14.6999 10.6699 14.0437 11.4107 13.2187 12.2357C12.3937 13.0607 11.3499 14.0419 10.0874 15.1794L8.99994 16.1544Z" fill="#1F2027"/>
</svg>
